<?xml version="1.0" standalone="no"?>
<!DOCTYPE svg PUBLIC "-//W3C//DTD SVG 20010904//EN"
 "http://www.w3.org/TR/2001/REC-SVG-20010904/DTD/svg10.dtd">
<svg version="1.0" xmlns="http://www.w3.org/2000/svg"
 width="105" height="105" viewBox="0 0 512.000000 512.000000"
 preserveAspectRatio="xMidYMid meet">

<g transform="translate(0.000000,512.000000) scale(0.100000,-0.100000)"
fill="#000000" stroke="none">
<path d="M383 5105 c-182 -49 -320 -189 -368 -372 -23 -86 -23 -4260 0 -4346
48 -185 187 -324 372 -372 86 -23 4260 -23 4346 0 185 48 324 187 372 372 23
86 23 4260 0 4346 -48 185 -187 324 -372 372 -84 22 -4269 21 -4350 0z m4357
-216 c70 -33 116 -79 149 -149 l26 -55 0 -2125 0 -2125 -26 -55 c-33 -70 -79
-116 -149 -149 l-55 -26 -2125 0 -2125 0 -55 26 c-70 33 -116 79 -149 149
l-26 55 0 2125 0 2125 26 55 c41 89 112 147 206 169 22 5 936 8 2143 8 l2105
-2 55 -26z"/>
<path d="M1324 4680 c-65 -26 -84 -112 -35 -161 l29 -29 1042 0 1042 0 29 29
c40 40 40 89 0 133 l-29 33 -1029 2 c-565 1 -1038 -2 -1049 -7z"/>
<path d="M3724 4681 c-65 -28 -84 -113 -35 -162 91 -91 230 36 144 131 -30 32
-75 45 -109 31z"/>
<path d="M2445 4054 c-113 -9 -267 -38 -375 -71 -737 -222 -1236 -918 -1207
-1683 17 -435 177 -810 480 -1127 429 -448 1090 -623 1692 -448 347 101 660
318 881 610 215 286 327 601 341 965 23 609 -286 1181 -812 1506 -177 110
-410 196 -610 228 -106 16 -306 26 -390 20z m330 -216 c360 -48 718 -252 952
-542 366 -455 433 -1085 172 -1609 -172 -343 -475 -612 -839 -742 -435 -156
-932 -96 -1317 158 -326 216 -548 529 -638 901 -163 667 154 1363 765 1680
286 149 578 198 905 154z"/>
<path d="M1879 3120 c-145 -12 -374 -47 -399 -60 -54 -29 -62 -121 -13 -160
33 -26 62 -25 265 2 133 18 214 22 443 22 286 1 390 -7 625 -45 251 -41 574
-132 784 -219 106 -44 124 -47 166 -25 36 19 50 43 50 88 0 50 -24 73 -125
116 -271 116 -660 217 -1009 262 -183 24 -607 34 -787 19z"/>
<path d="M1910 2520 c-120 -12 -302 -38 -358 -52 -103 -26 -124 -150 -31 -188
26 -11 52 -10 173 8 274 42 492 51 733 31 339 -27 655 -103 963 -229 66 -28
134 -50 150 -50 45 0 92 47 92 92 0 58 -18 77 -106 118 -253 117 -599 212
-927 256 -137 18 -556 26 -689 14z"/>
<path d="M1990 1924 c-19 -2 -78 -9 -130 -15 -178 -20 -220 -42 -220 -116 0
-45 14 -69 52 -89 28 -15 40 -14 152 2 170 26 544 26 706 0 203 -32 383 -80
553 -147 120 -48 158 -50 198 -10 39 40 40 89 2 130 -60 64 -414 175 -708 222
-115 19 -512 34 -605 23z"/>
</g>
</svg>
